<?xml version="1.0" encoding="utf-8"?>
<!-- Generator: Adobe Illustrator 22.1.0, SVG Export Plug-In . SVG Version: 6.00 Build 0)  -->
<svg version="1.1" id="Layer_1" xmlns="http://www.w3.org/2000/svg" xmlns:xlink="http://www.w3.org/1999/xlink" x="0px" y="0px"
	 viewBox="0 0 1920 1645.4" style="enable-background:new 0 0 1920 1645.4;" xml:space="preserve">
<style type="text/css">
	.st0{fill:url(#SVGID_1_);}
	.st1{fill:#516972;}
	.st2{fill:#587380;}
	.st3{fill:#3D5368;}
	.st4{fill:#C6B9BF;}
	.st5{fill:#181516;}
	.st6{fill:#283949;}
	.st7{fill:#3D3437;}
	.st8{fill:#30455B;}
	.st9{fill:#8A9093;}
	.st10{fill:#6D94A2;}
	.st11{fill:#FCBA81;}
</style>
<linearGradient id="SVGID_1_" gradientUnits="userSpaceOnUse" x1="583.4998" y1="-291.2924" x2="2230.3892" y2="-291.2924" gradientTransform="matrix(0 1 -1 0 667.3 -584.48)">
	<stop  offset="0" style="stop-color:#FFFFFF"/>
	<stop  offset="0" style="stop-color:#008AD0"/>
	<stop  offset="0" style="stop-color:#144A5B"/>
	<stop  offset="0.84" style="stop-color:#F8C7AC"/>
	<stop  offset="0.84" style="stop-color:#E6BBA5"/>
	<stop  offset="1" style="stop-color:#F5EA9E"/>
	<stop  offset="1" style="stop-color:#FFF8A2"/>
</linearGradient>
<rect x="-2.8" y="-1" class="st0" width="1922.8" height="1646.9"/>
<image style="overflow:visible;enable-background:new    ;" width="689" height="687" xlink:href="22E0BC7509F56E26.png"  transform="matrix(1.3399 0 0 1.3399 433.9765 900.1137)">
</image>
<path class="st1" d="M1627,1163l5.6,0.4l0.3-7.7l-6.3-0.3l-4.2-110.4l7.8-0.7l-0.7-5.2l-6.3-0.8l-3.7-123.7l33.5-54.7
	c-1.7-18.9-33.5-25.2-33.5-25.2v-75.3h-4.9v-74.7h-6.6v-68.7h-5.6V685h-4.9v74.9h-4.5v75c-28.8,7-35.1,23.5-35.1,29.8
	c23.8,17.5,35.1,49.8,35.1,49.8v125.1h-9.5v5.6h7l-6.7,112.8h-7.7v6.6h6.2v99.3h-138.6v321.5h196.1v-321.7h-9.4L1627,1163z"/>
<rect x="1009.1" y="1127.6" class="st2" width="318.7" height="414.6"/>
<path class="st1" d="M886.1,1220h-4.6v5.6h-5.6v4.9h-10.4v-11.2h-10v11.2h-11.2v-10.4h-10v10.4h-11.2v-10.2h-9.5v10.2h-11.5v-9.6
	h-10.3v9.6h-9.6v-9.8h-10.3v8.2c-1.6-0.2-3.2-0.2-4.8,0c-1.9-37.2-17.1-32.8-17.1-32.8v-32.8h-4v33.5c-15.9,0-16.7,30-16.7,30
	l-29,2.1l-2.5-8h-3.1v-7.9h8.9v-4.1c-3,0.4-6.1-0.1-8.9-1.4c-0.4-7.6,1.7-19.7-14.7-22.7c-1.6-2.3-2.9-4.9-3.8-7.6
	c-0.9,2.7-2.2,5.3-3.9,7.6c-16.4,3-14.2,15-14.6,22.7c-2.8,1.3-5.9,1.8-8.9,1.4v4.1h8.9v15.4h-3.6v8.3h0.7v146.6h246.1v-162.6
	L886.1,1220z M668.4,1229h-7.2v-16.7h7.3L668.4,1229z M680,1229h-1.8v-8h-5.6v-8.3h7.3L680,1229z"/>
<path class="st3" d="M1817.4,1185.2l5.9,0.4l0.3-8.2l-6.6-0.3l-4.5-116.3l8.2-0.7l-0.8-5.6l-6.6-0.8l-3.7-130.4
	c0,0,35.2-57.4,35.5-57.4c-1.8-19.9-35.1-26.6-35.1-26.6v-79.5h-5.2v-78.7h-6.9v-72.6h-6.3v72.6h-5.2v78.7h-4.8v79.4
	c-30.3,7.4-37,24.7-37,31.4c25.1,18.5,37,52.5,37,52.5v131.6h-10v5.9h7.4l-6.8,118.8h-8.4v7h6.1v104.6H1557v-13.9h-13.7v-13.5h-4.8
	v13.5h-10.3v-13.1h-5.6v13.1h-12.2v-12.7h-5.6v12.7h-13.3v-12.7h-5.6v12.7h-16.7v-142.6h-26.5v-11.9h-18.7v-15.1h-12.8v10h-24.9v3.3
	h-1.5v-21.6h12.6v-5.6c-4.3,0.6-8.7-0.1-12.6-2c-0.6-10.8,2.4-27.9-20.7-32c-2.4-3.2-4.3-6.8-5.6-10.7c-1.3,3.8-3.2,7.4-5.6,10.7
	c-23.1,4.2-20.1,21.2-20.7,32c-3.9,1.8-8.3,2.5-12.6,2v5.6h12.6v21.6h-5.1v6.6h-42.4l3,163.7h-8.9v-237.4c0,0,8.8-87-92-113.3
	c1.1-3.6,1.6-7.4,1.6-11.2c2.3-2.1,3.6-5,3.6-8c0-3.2-1.4-6.2-4-8.2c-0.4-6.5-1.1-13.5-1.8-20.1c1.9-1.5,3-3.7,3-6.1
	c0-3.1-1.7-5.9-4.5-7.1c-1.8-13.1-3.4-22.9-3.4-22.9s-1.7,9.9-3.5,23.1c-2.7,1.3-4.5,4-4.5,7c0,2.3,1,4.5,2.7,6
	c-0.8,6.9-1.5,14.1-2,20.8c-4.1,4.1-4.2,10.6-0.4,14.9c-0.1,4.1,0.4,8.1,1.6,12C1074.8,967,1082,1051,1082,1051l3.9,240.1h-7.8
	l-3-163.7h-34.9v-6.6h-5v-21.7h12.5v-5.6c-4.3,0.6-8.6-0.1-12.5-2c-0.6-10.8,2.4-27.9-20.7-32c-2.4-3.2-4.3-6.8-5.6-10.7
	c-1.3,3.8-3.2,7.4-5.6,10.7c-23.1,4.2-20.2,21.2-20.7,32c-3.9,1.8-8.3,2.5-12.6,2v5.6h12.7v21.6h-5v6.6h-6.1v-9.7h-24.9v-10h-12.8
	v15h-18.8v11.8h-26.6v142.8h-16.7v-12.7h-5.6v12.7H853v-12.7h-5.6v12.7h-12.1v-13.1h-5.6v13.1h-10.4v-13.5h-4.8v13.5h-13.8v13.9
	H615.2c-11.2,5.4-20.6,13.8-27.2,24.3H531v8.6l-1.2,34.8v271.2l1301.5,16.2v-355.1h-10L1817.4,1185.2z M997.9,1122.1h-10.4v-23.2
	h10.4V1122.1z M1014.3,1122.1h-10.4v-23.2h10.4V1122.1z M1030.5,1122.1h-10.3v-23.2h10.3V1122.1z M1347.7,1122.1h-10.3v-23.2h10.5
	L1347.7,1122.1z M1364.1,1122.1h-10.3v-23.2h10.3V1122.1z"/>
<polygon class="st4" points="199.2,1228.1 199.2,1236.2 191.9,1236.2 191.9,1236 197.8,1236 197.8,1228.1 "/>
<path class="st1" d="M416.8,1227.2h-4.6v5.6h-5.6v5H396v-11.2h-9.8v11.2H375v-10.4h-10.1v10.4h-11.2v-9.9h-9.6v10.2h-11.2v-9.6
	h-10.4v9.6h-9.7v-10.2h-10.3v8.1c-1.6-0.2-3.2-0.2-4.7,0c-1.9-37.2-17.1-32.8-17.1-32.8v-32.8h-4c0,0,0,32.6,0,33.5
	c-15.9,0-16.7,30-16.7,30l-29,2.1l-2.5-8h-3.1v-7.9h9.3v-4.1c-3,0.4-6.1-0.1-8.9-1.4c-0.4-7.6,1.7-19.7-14.7-22.7
	c-1.6-2.3-2.9-4.9-3.8-7.6c-0.9,2.7-2.2,5.3-3.9,7.6c-16.4,3-14.3,15-14.7,22.7c-2.8,1.3-5.9,1.8-8.9,1.4v4.1h8.9v15.4h-3.6v8.3h0.7
	v146.6h246.1v-162.4L416.8,1227.2z M199.1,1236.2h-7.3v-16.5h7.3L199.1,1236.2z M210.7,1236.2h-1.8v-8h-5.6v-8.3h7.3L210.7,1236.2z"
	/>
<polygon class="st5" points="978.4,1261.3 977.1,1261.3 977.1,1256.7 978.3,1256.7 "/>
<path class="st5" d="M774.8,927.4v-6.4C775,923.1,775,925.2,774.8,927.4z"/>
<polygon class="st5" points="978.4,1261.3 977.1,1261.3 977.1,1256.7 978.3,1256.7 "/>
<path class="st1" d="M522.3,667.6v-11.2c-6.2,1-12.5-0.4-17.7-3.8c-0.8-20.3,3.4-52.5-29-60.6c-2-3.7-3.7-7.5-5.1-11.5V560h4.2v-3.6
	h-4.4v-35.5h-5.1v35.8h-5v3.6h5.1v20.9c-1.4,3.8-3.1,7.5-5,11.2c-32.5,8-28.3,40.2-29.1,60.5c-5.2,3.4-11.5,4.8-17.6,3.9v10.8h17.6
	v41.1h-6.7v17.6h-9.8v15.5h9.4v8h6.6l-2.2,271.3h-5.6v6.7h-8v23.4h8v6.5h6.6l4.7,120.4H423v7.3h-8v6.6h8v12.1h-8v6.9h15.3l4,205H503
	l4-205h15.4v-6.9h-8.5v-12.1h7.8v-6.7h-7.8v-7.3h-11.2l4.7-120.4h6.4v-6.5h7.8v-23.2h-7.8v-6.6h-5.6L506,749.9h6.5v-7.8h9.5v-15.4
	h-9.8v-18.1h-7.4v-40.9L522.3,667.6z M483.5,666.5h14.6v44.1h-14.6V666.5z M460.7,666.5h14.5v44.1h-14.5V666.5z M437.7,666.5h14.7
	v44.1h-14.5L437.7,666.5z"/>
<rect x="248" y="1273.4" class="st3" width="572.6" height="372.5"/>
<path class="st6" d="M1253.7,1318.2v328.9H-3.2v-328.9h361.2v-15H368v-21h8.7v-5.6h-10.7v-4.2h18.6v-5.6h-13.4v-4.1H420v4.1h-13.5
	v5.6h18.6v4.7h-10.7v5.6h8.8v21h10.1v15h60.9v-57.3h8.8V1230h-8.8v-15.3h6.6v-16.1h-6.6V1187h13.8v-55.4c0,0,22.6,2.2,20.4,0
	c9.5-85.3,64.2-89,64.2-89v-9.8h30.4v-77.1c-3,4.5-5.6-1.1-6.7,1.7c-2.5,5.6-7,3.6-11.2,10.1c-1.5-18.9,0-19.7,10.2-25.5
	c3.5-1.3,6.4-4,7.9-7.5v-11.2h4.2v109.5h30.4v9.8c0,0,54.7,3.7,64.2,89c-2.2,2.2,20.4,0,20.4,0v55.4h13.8v11.7H750v16.1h6.5v15.3
	h-8.8v31.2h8.8v56.9h34.1l8.3-435.5l-9.8-0.8l-0.6-9.9l10.3-0.8v-39.7c4.1-8.3,4.1-18,0-26.2c-1.4-5.3-2.4-10.7-2.9-16.1
	c-2-0.9-4.1-1.2-6.3-1.1c0,0-4.7-4.4,4-5.9c5.1-4.4,11.2-15.3-0.7-20c-0.3-4.7,0.7-6.2,5.6-6.2c-0.4-3.6,1.8-4.4,5.1-4.4
	c-0.1-3.6-0.5-7.1-1.1-10.6c0,0-33.2-19.3-2.2-38.6c0.8-0.7,4.8,4.4,6.3-75.1l-16.7-0.7l-1.5-4.7l-13.8-1.1v-3.6l23.7-1.5l0.7-4.7
	l5.1-0.7l6.9-25.1l6.9,25.1l5.1,0.7l0.7,4.7l23.7,1.5v3.6l-13.8,1.1l-1.5,4.7l-16.7,0.7c1.5,79.5,5.6,74.4,6.3,75.1
	c31,19.3-2.2,38.6-2.2,38.6c-0.6,3.5-0.9,7.1-1.1,10.6c3.3,0,5.6,0.7,5.1,4.4c5.1,0,6.2,1.5,5.6,6.2c-12.1,4.7-5.6,15.7-0.7,20
	c8.7,1.5,4,5.9,4,5.9c-2.1-0.2-4.3,0.2-6.3,1.1c-0.6,5.4-1.5,10.8-2.9,16.1c-4.1,8.3-4.1,18,0,26.2v39.7l10.3,0.8l-0.6,9.9l-9.8,0.8
	l5.9,312.6l1.5,76.7h-1.2v4.6h1.3l0.5,26.5l0,0v-21h8.8v-5.6h-9.4v-4.6H848v-5.6h-13.4v-4h48.7v4.1h-13.5v5.6h18.7v4.7h-10.7v5.6
	h8.8v21h10v14.9h155.4v-22.8c0,0,21-16,54.4,0v22.8H1253.7z"/>
<polygon class="st7" points="1545.2,1514.4 1545.2,1544.8 1462.8,1544.8 1462.8,1527.2 1379.2,1527.2 1379.2,1514.4 "/>
<path class="st8" d="M1740.2,1635.8l-17.5-328.2h-38.1v-63h-15.7c0.1-0.6,0.1-1.2,0-1.8c0-4.6-3.1-11.7-6.8-11.7
	c-3.7,0-6.8,7.1-6.8,11.7v1.8h-14.9v-1.8c0-4.6-3.1-11.7-6.8-11.7c-3.7,0-6.8,7.1-6.8,11.7c-0.1,0.6-0.1,1.2,0,1.8h-17.9
	c0.1-0.4,0.1-0.7,0-1.1c0-4.6-3-11.7-6.8-11.7s-6.8,7.1-6.8,11.7c-0.1,0.4-0.1,0.7,0,1.1h-13v79.2h11.2l-6.2,307.1L1740.2,1635.8z
	 M1662.8,1247.3c0,0,5.6-2.8,4.2,25.5l-4.1,0.4l-4.4-0.4C1657.4,1244.5,1662.8,1247.3,1662.8,1247.3z M1633.7,1247.3
	c0,0,5.6-2.8,4.2,25.5l-4.1,0.4l-4.3-0.4C1628.3,1244.5,1633.7,1247.3,1633.7,1247.3z M1602.7,1247.3c0,0,5.6-2.8,4.2,25.5l-4.2,0.4
	l-4.3-0.4c-1.2-28.2,4-25.5,4-25.5H1602.7z"/>
<path class="st6" d="M1720,1541.8v-121.7h-127.6v-111.3c0,0,15.4-7.5,0-15.7v-104.2h12.2v-11.2h-13.7v-25.2h-6.1v-21.2h-17.3v-48.7
	h-40.9c0,0-3.9-11.2-27.5-11.6c-1.3,0.7,0-13.7,0-13.7h-32c0,0,1.3,14.4,0,13.7c-23.7,0.7-27.5,11.6-27.5,11.6h-41v48.7h-17.3v21.2
	h-6.4v25.6h-13.5v11.2h12.2v104.2c-15.4,8.3,0,15.7,0,15.7v111.3h-119.9v226.6h493v-105.4H1720z M1446.8,1251.9
	c0,0,14.1-23.3,36.1-21.3c22.3-2.1,36.2,21.3,36.2,21.3v180.3h-72.6L1446.8,1251.9z"/>
<circle class="st9" cx="1270.8" cy="416" r="1.8"/>
<circle class="st9" cx="1341.6" cy="347.2" r="1.8"/>
<circle class="st9" cx="1325.4" cy="403.3" r="1.8"/>
<ellipse class="st9" cx="1327" cy="385.3" rx="0.7" ry="0.7"/>
<ellipse class="st10" cx="1346.3" cy="390.6" rx="1.6" ry="1.7"/>
<ellipse class="st9" cx="1327" cy="343.3" rx="1.6" ry="1.7"/>
<ellipse class="st9" cx="1353.3" cy="355.9" rx="0.7" ry="0.7"/>
<circle class="st10" cx="1263.1" cy="328.6" r="1.8"/>
<circle class="st9" cx="1282.4" cy="395.6" r="0.8"/>
<circle class="st9" cx="1294.5" cy="316.3" r="0.8"/>
<circle class="st9" cx="1282.4" cy="350.7" r="1.8"/>
<circle class="st9" cx="1312.4" cy="364.1" r="0.8"/>
<circle class="st9" cx="1212.5" cy="398.4" r="0.8"/>
<circle class="st9" cx="1297.7" cy="367.7" r="0.8"/>
<circle class="st9" cx="1496.4" cy="340.9" r="4"/>
<ellipse transform="matrix(0.866 -0.5 0.5 0.866 124.4813 850.2582)" class="st9" cx="1648.8" cy="192.8" rx="4" ry="4"/>
<circle class="st9" cx="1614.1" cy="313.8" r="4"/>
<ellipse class="st9" cx="1617.5" cy="274.9" rx="1.5" ry="1.6"/>
<ellipse class="st10" cx="1659.3" cy="286.4" rx="3.5" ry="3.7"/>
<ellipse class="st9" cx="1617.5" cy="184.4" rx="3.5" ry="3.7"/>
<ellipse class="st9" cx="1674.2" cy="211.7" rx="1.5" ry="1.6"/>
<circle class="st10" cx="1501.1" cy="151.9" r="4"/>
<circle class="st9" cx="1521.4" cy="297.1" r="1.7"/>
<circle class="st9" cx="1568.7" cy="125.3" r="1.7"/>
<ellipse transform="matrix(0.6413 -0.7673 0.7673 0.6413 392.0912 1239.2466)" class="st9" cx="1521.5" cy="200.3" rx="4" ry="4"/>
<circle class="st9" cx="1586.1" cy="229.4" r="1.7"/>
<circle class="st9" cx="1371.1" cy="303.1" r="1.7"/>
<circle class="st9" cx="1554.3" cy="237.1" r="1.7"/>
<image style="overflow:visible;enable-background:new    ;" width="317" height="318" xlink:href="22E0BC7509F56E21.png"  transform="matrix(1.3357 0 0 1.3357 1217.772 63.3379)">
</image>
<polygon class="st11" points="1426.3,271.1 1430.1,274 1434.1,271.1 1431.1,274.9 1434.1,278.7 1430.1,275.9 1426.3,278.8 
	1429.3,274.9 "/>
<circle class="st9" cx="538.5" cy="218.5" r="1.8"/>
<circle class="st9" cx="636.9" cy="208.6" r="1.8"/>
<circle class="st9" cx="589.2" cy="242.6" r="1.8"/>
<ellipse transform="matrix(0.6216 -0.7834 0.7834 0.6216 47.9114 558.2039)" class="st9" cx="601.7" cy="229.5" rx="0.7" ry="0.7"/>
<ellipse transform="matrix(0.6216 -0.7834 0.7834 0.6216 39.7495 573.6468)" class="st10" cx="613.6" cy="245.7" rx="1.7" ry="1.6"/>
<ellipse transform="matrix(0.6218 -0.7832 0.7832 0.6218 83.5257 565.992)" class="st9" cx="627.8" cy="196.5" rx="1.7" ry="1.6"/>
<ellipse transform="matrix(0.6216 -0.7834 0.7834 0.6216 67.892 586.0736)" class="st9" cx="640.5" cy="222.8" rx="0.7" ry="0.7"/>
<circle class="st10" cx="607.9" cy="144.4" r="1.8"/>
<circle class="st9" cx="560.3" cy="209.7" r="0.8"/>
<circle class="st9" cx="640.2" cy="154.1" r="0.8"/>
<circle class="st9" cx="588.3" cy="174.4" r="1.8"/>
<circle class="st9" cx="603.4" cy="203.7" r="0.8"/>
<circle class="st9" cx="503.9" cy="168.5" r="0.8"/>
<circle class="st9" cx="589.6" cy="197.3" r="0.8"/>
<ellipse transform="matrix(0.6216 -0.7834 0.7834 0.6216 53.3318 710.4477)" class="st9" cx="762" cy="300" rx="4" ry="4"/>
<ellipse transform="matrix(0.1466 -0.9892 0.9892 0.1466 555.1086 1200.826)" class="st9" cx="973.5" cy="278.7" rx="4" ry="4"/>
<ellipse transform="matrix(0.6216 -0.7834 0.7834 0.6216 54.0517 815.5516)" class="st9" cx="871.1" cy="351.8" rx="4" ry="4"/>
<ellipse transform="matrix(0.6216 -0.7834 0.7834 0.6216 86.258 825.8832)" class="st9" cx="897.9" cy="323.7" rx="1.6" ry="1.5"/>
<ellipse transform="matrix(0.6222 -0.7828 0.7828 0.6222 65.1127 857.2645)" class="st10" cx="920.8" cy="361.2" rx="3.7" ry="3.4"/>
<ellipse transform="matrix(0.6218 -0.7832 0.7832 0.6218 162.9857 842.8112)" class="st9" cx="954.2" cy="252.6" rx="3.7" ry="3.5"/>
<ellipse transform="matrix(0.6216 -0.7834 0.7834 0.6216 129.2325 885.9608)" class="st9" cx="981.6" cy="309.2" rx="1.6" ry="1.5"/>
<ellipse transform="matrix(0.6216 -0.7834 0.7834 0.6216 224.8229 748.4363)" class="st10" cx="887" cy="141.5" rx="4" ry="4"/>
<circle class="st9" cx="808.8" cy="281.2" r="1.7"/>
<circle class="st9" cx="935.6" cy="163.7" r="1.7"/>
<ellipse transform="matrix(0.9793 -0.2026 0.2026 0.9793 -23.513 180.3461)" class="st9" cx="869.1" cy="205" rx="4" ry="4"/>
<circle class="st9" cx="901.6" cy="268.5" r="1.7"/>
<circle class="st9" cx="687.3" cy="192.5" r="1.7"/>
<circle class="st9" cx="872" cy="254.7" r="1.7"/>
<image style="overflow:visible;enable-background:new    ;" width="318" height="317" xlink:href="22E0BC7509F56E23.png"  transform="matrix(1.3357 0 0 1.3357 538.4921 -5)">
</image>
<polygon class="st11" points="750.5,201.5 751.7,206.3 756.6,206.4 751.9,207.6 751.8,212.3 750.5,207.7 745.6,207.6 750.4,206.4 
	"/>
<polygon class="st6" points="1717.5,1370.4 1717.5,1535.4 1717.5,1647.3 1823,1646.9 1816.8,1370.4 "/>
</svg>
